<svg width="375" height="229" viewBox="0 0 375 229" fill="none" xmlns="http://www.w3.org/2000/svg">
<g filter="url(#filter0_d_182_2406)">
<rect x="25" y="50" width="325" height="129" rx="22" fill="white"/>
</g>
<path d="M152.388 148H154.67V139.544H157.764V137.64H149.308V139.544H152.388V148ZM158.861 148.112C159.967 148.112 160.779 147.678 161.465 146.908C161.465 147.328 161.535 147.692 161.633 148H163.873C163.719 147.622 163.663 147.076 163.663 146.18V143.31C163.663 141.392 162.823 140.384 160.779 140.384C158.917 140.384 157.797 141.042 157.055 141.714L158.007 143.002C158.693 142.47 159.505 142.078 160.457 142.078C161.185 142.078 161.465 142.428 161.465 142.974V143.156C158.189 143.422 156.733 144.374 156.733 146.096C156.733 147.37 157.713 148.112 158.861 148.112ZM159.757 146.418C159.267 146.418 158.931 146.18 158.931 145.704C158.931 145.018 159.687 144.57 161.465 144.388V145.774C161.087 146.152 160.541 146.418 159.757 146.418ZM165.303 148H167.557V145.984L168.467 144.962L170.119 148H172.443L169.867 143.324L172.303 140.538H169.881L167.557 143.324V137.64H165.303V148ZM176.498 148.154C177.8 148.154 178.878 147.776 179.746 147.034L178.878 145.69C178.374 146.152 177.548 146.586 176.666 146.586C175.728 146.586 175.042 146.11 174.93 144.878H179.872V144.542C179.872 141.154 177.982 140.384 176.442 140.384C174.902 140.384 172.69 141.378 172.69 144.276C172.69 147.16 174.552 148.154 176.498 148.154ZM174.958 143.548C175.126 142.456 175.728 141.994 176.428 141.994C177.268 141.994 177.744 142.498 177.856 143.548H174.958ZM185.146 148H187.414V144.318H188.884C190.956 144.318 193.14 143.744 193.14 140.958C193.14 138.228 191.124 137.64 188.912 137.64H185.146V148ZM187.414 142.554V139.502H188.968C190.396 139.502 190.914 140.048 190.914 141.014C190.914 142.008 190.382 142.554 188.968 142.554H187.414ZM194.397 148H196.651V142.988C197.155 142.554 197.673 142.246 198.289 142.246C198.905 142.246 199.157 142.596 199.157 143.268V148H201.411V142.554C201.411 141.014 200.501 140.384 199.227 140.384C197.925 140.384 197.099 141.126 196.651 141.714V137.64H194.397V148ZM206.467 148.154C208.273 148.154 210.275 147.174 210.275 144.276C210.275 141.35 208.273 140.384 206.467 140.384C204.647 140.384 202.645 141.35 202.645 144.276C202.645 147.174 204.661 148.154 206.467 148.154ZM206.467 146.572C205.319 146.572 204.899 145.536 204.899 144.29C204.899 142.946 205.389 142.036 206.467 142.036C207.587 142.036 208.021 143.044 208.021 144.29C208.021 145.648 207.531 146.572 206.467 146.572ZM214.719 148.098C215.209 148.098 216.035 148.028 216.203 147.986V146.376C216.049 146.432 215.713 146.46 215.461 146.46C214.649 146.46 214.425 146.208 214.425 145.41V142.176H216.343V140.538H214.425V137.976H212.185V140.538H210.939V142.176H212.185V145.9C212.185 147.3 212.507 148.098 214.719 148.098ZM220.973 148.154C222.779 148.154 224.781 147.174 224.781 144.276C224.781 141.35 222.779 140.384 220.973 140.384C219.153 140.384 217.151 141.35 217.151 144.276C217.151 147.174 219.167 148.154 220.973 148.154ZM220.973 146.572C219.825 146.572 219.405 145.536 219.405 144.29C219.405 142.946 219.895 142.036 220.973 142.036C222.093 142.036 222.527 143.044 222.527 144.29C222.527 145.648 222.037 146.572 220.973 146.572Z" fill="black"/>
<g clip-path="url(#clip0_182_2406)">
<path d="M170.396 93.6295C169.59 93.6295 168.936 92.976 168.936 92.1699V89.2506C168.936 88.4445 169.59 87.791 170.396 87.791C171.202 87.791 171.855 88.4445 171.855 89.2506V92.1699C171.855 92.976 171.202 93.6295 170.396 93.6295Z" fill="#66334D"/>
<path d="M198.129 89.2506V92.1699C198.129 92.9756 197.475 93.6295 196.669 93.6295H179.153C178.348 93.6295 177.694 92.9756 177.694 92.1699V89.2506C177.694 86.8364 179.659 84.8717 182.073 84.8717H193.75C196.164 84.8717 198.129 86.8364 198.129 89.2506Z" fill="#66334D"/>
<path d="M198.129 89.2506V92.1699C198.129 92.9756 197.475 93.6295 196.669 93.6295H187.911V84.8717H193.75C196.164 84.8717 198.129 86.8364 198.129 89.2506Z" fill="#66334D"/>
<path d="M198.129 89.2507V92.17C198.129 92.9757 197.475 93.6296 196.669 93.6296H187.911V84.8718H193.75C196.164 84.8718 198.129 86.8364 198.129 89.2507Z" fill="#4D2739"/>
<path d="M212.822 95.0892V106.766L187.911 109.102L163 106.766V95.0892C163 92.6749 164.965 90.7103 167.379 90.7103H208.443C210.858 90.7103 212.822 92.6749 212.822 95.0892Z" fill="#8C466A"/>
<path d="M212.822 95.0892V106.766L187.911 109.102V90.7103H208.443C210.858 90.7103 212.822 92.6749 212.822 95.0892Z" fill="#66334D"/>
<path d="M212.822 106.766V118.443C212.822 120.858 210.858 122.822 208.443 122.822H167.379C164.965 122.822 163 120.858 163 118.443V106.766H212.822Z" fill="#FF8FB8"/>
<path d="M212.822 106.766V118.443C212.822 120.858 210.858 122.822 208.443 122.822H187.911V106.766H212.822Z" fill="#FF5F96"/>
<path d="M187.911 96.5488C182.277 96.5488 177.694 101.132 177.694 106.766C177.694 112.39 182.268 116.984 187.911 116.984C193.557 116.984 198.129 112.388 198.129 106.766C198.129 101.132 193.546 96.5488 187.911 96.5488Z" fill="#FFF2FB"/>
<path d="M198.129 106.766C198.129 112.388 193.557 116.984 187.911 116.984V96.5488C193.545 96.5488 198.129 101.132 198.129 106.766Z" fill="#FFDFEA"/>
<path d="M187.911 102.387C185.497 102.387 183.532 104.352 183.532 106.766C183.532 109.175 185.491 111.145 187.911 111.145C190.329 111.145 192.29 109.177 192.29 106.766C192.29 104.352 190.325 102.387 187.911 102.387Z" fill="#FFDFEA"/>
<path d="M192.29 106.766C192.29 109.177 190.329 111.145 187.911 111.145V102.387C190.325 102.387 192.29 104.352 192.29 106.766Z" fill="#FFBFBF"/>
<path d="M170.396 99.4681C171.202 99.4681 171.855 98.8146 171.855 98.0085C171.855 97.2023 171.202 96.5488 170.396 96.5488C169.59 96.5488 168.936 97.2023 168.936 98.0085C168.936 98.8146 169.59 99.4681 170.396 99.4681Z" fill="#97DE3D"/>
<path d="M205.427 99.4681H202.507C201.701 99.4681 201.048 98.8146 201.048 98.0085C201.048 97.2024 201.701 96.5488 202.507 96.5488H205.427C206.233 96.5488 206.886 97.2024 206.886 98.0085C206.886 98.8146 206.233 99.4681 205.427 99.4681Z" fill="#59C36A"/>
<path d="M189.371 74.4596V77.3789C189.371 78.1846 188.717 78.8386 187.911 78.8386C187.106 78.8386 186.452 78.1846 186.452 77.3789V74.4596C186.452 73.6539 187.106 73 187.911 73C188.717 73 189.371 73.6539 189.371 74.4596Z" fill="#FFE580"/>
<path d="M189.371 74.4596V77.3789C189.371 78.1846 188.717 78.8386 187.911 78.8386V73C188.717 73 189.371 73.6539 189.371 74.4596Z" fill="#FFCC66"/>
<path d="M191.685 80.9028C191.115 80.3327 191.115 79.4086 191.685 78.8386L193.75 76.7743C194.32 76.2043 195.244 76.2043 195.814 76.7743C196.384 77.3444 196.384 78.2685 195.814 78.8386L193.75 80.9028C193.18 81.4728 192.255 81.4728 191.685 80.9028Z" fill="#FFCC66"/>
<path d="M182.073 80.9028L180.009 78.8386C179.439 78.2685 179.439 77.3444 180.009 76.7743C180.578 76.2043 181.503 76.2043 182.073 76.7743L184.137 78.8386C184.707 79.4086 184.707 80.3327 184.137 80.9028C183.567 81.4727 182.643 81.4729 182.073 80.9028Z" fill="#FFE580"/>
</g>
<defs>
<filter id="filter0_d_182_2406" x="-25" y="0" width="425" height="229" filterUnits="userSpaceOnUse" color-interpolation-filters="sRGB">
<feFlood flood-opacity="0" result="BackgroundImageFix"/>
<feColorMatrix in="SourceAlpha" type="matrix" values="0 0 0 0 0 0 0 0 0 0 0 0 0 0 0 0 0 0 127 0" result="hardAlpha"/>
<feOffset/>
<feGaussianBlur stdDeviation="25"/>
<feColorMatrix type="matrix" values="0 0 0 0 0.352941 0 0 0 0 0.423529 0 0 0 0 0.917647 0 0 0 0.07 0"/>
<feBlend mode="normal" in2="BackgroundImageFix" result="effect1_dropShadow_182_2406"/>
<feBlend mode="normal" in="SourceGraphic" in2="effect1_dropShadow_182_2406" result="shape"/>
</filter>
<clipPath id="clip0_182_2406">
<rect width="49.8223" height="49.8223" fill="white" transform="translate(163 73)"/>
</clipPath>
</defs>
</svg>
