<svg width="176" height="481" viewBox="0 0 176 481" fill="none" xmlns="http://www.w3.org/2000/svg">
<path d="M172.5 479L6.69024 90.338C3.03221 81.7635 2.74566 72.1242 5.88792 63.3475L15.5 36.5" stroke="#FF1D1D" stroke-width="6"/>
<path fill-rule="evenodd" clip-rule="evenodd" d="M12.644 31.2019L20.2371 34.2009C22.2498 34.9959 24.7474 33.4462 25.5265 31.4737L34.2256 9.44917C35.0044 7.47732 34.0052 5.23333 31.9924 4.43836L24.3994 1.43932C22.3873 0.644614 20.1233 1.59899 19.3443 3.57148L10.6452 25.596C9.86742 27.569 10.632 30.4072 12.644 31.2019ZM13.1844 21.0363L16.1 13.6545L17.9499 14.1284L16.7487 17.1697L13.1844 21.0363ZM16.8154 18.7433C16.8154 18.7433 14.8864 21.3537 13.2555 23.5626C18.4839 27.8193 24.9177 28.201 25.0124 28.2066L25.0134 28.2066L25.7057 22.2547L16.8154 18.7433ZM26.8877 20.9439L28.0105 18.1013L29.6861 19.0184L26.8482 26.2034L26.8877 20.9439ZM30.1167 17.9281L32.7059 11.3728L30.4882 11.8282L28.4396 17.0148L30.1167 17.9281ZM32.4364 9.11264L30.1703 10.658L21.2781 7.14585L20.6791 4.46884L32.4364 9.11264ZM18.3821 13.0343L20.3496 8.05273L19.0426 6.20437L16.5312 12.5629L18.3821 13.0343Z" fill="#FF1D1D"/>
</svg>
