<svg width="325" height="57" viewBox="0 0 325 57" fill="none" xmlns="http://www.w3.org/2000/svg">
<rect width="325" height="57" rx="15" fill="url(#paint0_linear_194_881)"/>
<path d="M130.278 33.196C132.882 33.196 134.114 31.74 134.618 29.654L132.476 29.178C132.112 30.592 131.51 31.362 130.292 31.362C128.724 31.362 127.856 29.99 127.856 27.806C127.856 25.664 128.696 24.334 130.264 24.334C131.482 24.334 131.986 25.146 132.322 26.336L134.478 25.706C134.03 23.844 132.896 22.444 130.278 22.444C127.66 22.444 125.574 24.208 125.574 27.806C125.574 31.46 127.576 33.196 130.278 33.196ZM136.553 33H138.807V27.988C139.311 27.554 139.829 27.246 140.445 27.246C141.061 27.246 141.313 27.596 141.313 28.268V33H143.567V27.554C143.567 26.014 142.657 25.384 141.383 25.384C140.081 25.384 139.255 26.126 138.807 26.714V22.64H136.553V33ZM149.11 33.154C150.412 33.154 151.49 32.776 152.358 32.034L151.49 30.69C150.986 31.152 150.16 31.586 149.278 31.586C148.34 31.586 147.654 31.11 147.542 29.878H152.484V29.542C152.484 26.154 150.594 25.384 149.054 25.384C147.514 25.384 145.302 26.378 145.302 29.276C145.302 32.16 147.164 33.154 149.11 33.154ZM147.57 28.548C147.738 27.456 148.34 26.994 149.04 26.994C149.88 26.994 150.356 27.498 150.468 28.548H147.57ZM157.55 33.154C159.524 33.154 160.448 32.048 160.924 30.886L159.062 30.242C158.74 31.25 158.194 31.572 157.592 31.572C156.556 31.572 156.136 30.62 156.136 29.29C156.136 27.806 156.71 27.036 157.62 27.036C158.278 27.036 158.712 27.344 159.006 28.296L160.896 27.666C160.462 26.462 159.678 25.384 157.648 25.384C155.996 25.384 153.882 26.294 153.882 29.276C153.882 32.174 155.8 33.154 157.55 33.154ZM162.553 33H164.807V30.984L165.717 29.962L167.369 33H169.693L167.117 28.324L169.553 25.538H167.131L164.807 28.324V22.64H162.553V33ZM178.918 33.154C180.724 33.154 182.726 32.174 182.726 29.276C182.726 26.35 180.724 25.384 178.918 25.384C177.098 25.384 175.096 26.35 175.096 29.276C175.096 32.174 177.112 33.154 178.918 33.154ZM178.918 31.572C177.77 31.572 177.35 30.536 177.35 29.29C177.35 27.946 177.84 27.036 178.918 27.036C180.038 27.036 180.472 28.044 180.472 29.29C180.472 30.648 179.982 31.572 178.918 31.572ZM186.648 33.154C187.95 33.154 188.776 32.412 189.224 31.838V33H191.478V25.538H189.224V30.606C188.72 31.04 188.202 31.362 187.6 31.362C186.97 31.362 186.718 30.998 186.718 30.326V25.538H184.464V30.984C184.464 32.524 185.374 33.154 186.648 33.154ZM196.824 33.098C197.314 33.098 198.14 33.028 198.308 32.986V31.376C198.154 31.432 197.818 31.46 197.566 31.46C196.754 31.46 196.53 31.208 196.53 30.41V27.176H198.448V25.538H196.53V22.976H194.29V25.538H193.044V27.176H194.29V30.9C194.29 32.3 194.612 33.098 196.824 33.098Z" fill="#FEFEFF"/>
<defs>
<linearGradient id="paint0_linear_194_881" x1="-4.60867e-07" y1="-3.5" x2="215.787" y2="187.127" gradientUnits="userSpaceOnUse">
<stop stop-color="#53E88B"/>
<stop offset="1" stop-color="#15BE77"/>
</linearGradient>
</defs>
</svg>
