<svg width="40" height="40" viewBox="0 0 40 40" fill="none" xmlns="http://www.w3.org/2000/svg">
<g clip-path="url(#clip0_169_20767)">
<path d="M20 40C31.0457 40 40 31.0457 40 20C40 8.9543 31.0457 0 20 0C8.9543 0 0 8.9543 0 20C0 31.0457 8.9543 40 20 40Z" fill="#32BA7C"/>
<path d="M14.8898 29.0221L25.1737 39.306C33.691 37.0347 40.0002 29.2745 40.0002 20C40.0002 19.8108 40.0002 19.6215 40.0002 19.4322L31.9245 11.9874L14.8898 29.0221Z" fill="#0AA06E"/>
<path d="M20.5046 24.4794C21.3879 25.3627 21.3879 26.8769 20.5046 27.7601L18.675 29.5898C17.7917 30.4731 16.2775 30.4731 15.3942 29.5898L7.38158 21.5141C6.4983 20.6308 6.4983 19.1166 7.38158 18.2333L9.21123 16.4037C10.0945 15.5204 11.6087 15.5204 12.492 16.4037L20.5046 24.4794Z" fill="white"/>
<path d="M27.5077 10.5362C28.391 9.65296 29.9051 9.65296 30.7884 10.5362L32.6181 12.3659C33.5014 13.2492 33.5014 14.7634 32.6181 15.6466L18.738 29.4637C17.8547 30.347 16.3405 30.347 15.4572 29.4637L13.6275 27.634C12.7443 26.7507 12.7443 25.2366 13.6275 24.3533L27.5077 10.5362Z" fill="white"/>
</g>
<defs>
<clipPath id="clip0_169_20767">
<rect width="40" height="40" fill="white"/>
</clipPath>
</defs>
</svg>
