<svg width="175" height="57" viewBox="0 0 175 57" fill="none" xmlns="http://www.w3.org/2000/svg">
<rect width="175" height="57" rx="15" fill="url(#paint0_linear_182_1586)"/>
<path d="M33.032 33.224C36.008 33.224 37.416 31.56 37.992 29.176L35.544 28.632C35.128 30.248 34.44 31.128 33.048 31.128C31.256 31.128 30.264 29.56 30.264 27.064C30.264 24.616 31.224 23.096 33.016 23.096C34.408 23.096 34.984 24.024 35.368 25.384L37.832 24.664C37.32 22.536 36.024 20.936 33.032 20.936C30.04 20.936 27.656 22.952 27.656 27.064C27.656 31.24 29.944 33.224 33.032 33.224ZM39.6323 33H42.2083V27.704C42.6883 27.08 43.4563 26.536 44.4803 26.536C44.6403 26.536 45.0563 26.568 45.1523 26.584L45.1843 24.296H45.1043C43.5043 24.296 42.6883 25.176 42.2243 25.896H42.2083V24.472H39.6323V33ZM49.9265 33.176C51.4145 33.176 52.6465 32.744 53.6385 31.896L52.6465 30.36C52.0705 30.888 51.1265 31.384 50.1185 31.384C49.0465 31.384 48.2625 30.84 48.1345 29.432H53.7825V29.048C53.7825 25.176 51.6225 24.296 49.8625 24.296C48.1025 24.296 45.5745 25.432 45.5745 28.744C45.5745 32.04 47.7025 33.176 49.9265 33.176ZM48.1665 27.912C48.3585 26.664 49.0465 26.136 49.8465 26.136C50.8065 26.136 51.3505 26.712 51.4785 27.912H48.1665ZM57.0511 33.128C58.3151 33.128 59.2431 32.632 60.0271 31.752C60.0271 32.232 60.1071 32.648 60.2191 33H62.7791C62.6031 32.568 62.5391 31.944 62.5391 30.92V27.64C62.5391 25.448 61.5791 24.296 59.2431 24.296C57.1151 24.296 55.8351 25.048 54.9871 25.816L56.0751 27.288C56.8591 26.68 57.7871 26.232 58.8751 26.232C59.7071 26.232 60.0271 26.632 60.0271 27.256V27.464C56.2831 27.768 54.6191 28.856 54.6191 30.824C54.6191 32.28 55.7391 33.128 57.0511 33.128ZM58.0751 31.192C57.5151 31.192 57.1311 30.92 57.1311 30.376C57.1311 29.592 57.9951 29.08 60.0271 28.872V30.456C59.5951 30.888 58.9711 31.192 58.0751 31.192ZM67.9975 33.112C68.5575 33.112 69.5015 33.032 69.6935 32.984V31.144C69.5175 31.208 69.1335 31.24 68.8455 31.24C67.9175 31.24 67.6615 30.952 67.6615 30.04V26.344H69.8535V24.472H67.6615V21.544H65.1015V24.472H63.6775V26.344H65.1015V30.6C65.1015 32.2 65.4695 33.112 67.9975 33.112ZM75.1296 33.176C76.6176 33.176 77.8496 32.744 78.8416 31.896L77.8496 30.36C77.2736 30.888 76.3296 31.384 75.3216 31.384C74.2496 31.384 73.4656 30.84 73.3376 29.432H78.9856V29.048C78.9856 25.176 76.8256 24.296 75.0656 24.296C73.3056 24.296 70.7776 25.432 70.7776 28.744C70.7776 32.04 72.9056 33.176 75.1296 33.176ZM73.3696 27.912C73.5616 26.664 74.2496 26.136 75.0496 26.136C76.0096 26.136 76.5536 26.712 76.6816 27.912H73.3696ZM83.5845 33H85.9845L86.8965 30.36H90.9285L91.8085 33H94.4485L90.2565 21.112H87.7765L83.5845 33ZM87.5365 28.472L88.9285 24.44H88.9605L90.3205 28.472H87.5365ZM99.1102 33.176C101.366 33.176 102.422 31.912 102.966 30.584L100.838 29.848C100.47 31 99.8463 31.368 99.1583 31.368C97.9743 31.368 97.4943 30.28 97.4943 28.76C97.4943 27.064 98.1503 26.184 99.1903 26.184C99.9423 26.184 100.438 26.536 100.774 27.624L102.934 26.904C102.438 25.528 101.542 24.296 99.2223 24.296C97.3343 24.296 94.9183 25.336 94.9183 28.744C94.9183 32.056 97.1103 33.176 99.1102 33.176ZM107.891 33.176C110.148 33.176 111.204 31.912 111.748 30.584L109.62 29.848C109.252 31 108.628 31.368 107.94 31.368C106.756 31.368 106.276 30.28 106.276 28.76C106.276 27.064 106.932 26.184 107.972 26.184C108.724 26.184 109.22 26.536 109.556 27.624L111.716 26.904C111.22 25.528 110.324 24.296 108.004 24.296C106.116 24.296 103.7 25.336 103.7 28.744C103.7 32.056 105.892 33.176 107.891 33.176ZM116.849 33.176C118.913 33.176 121.201 32.056 121.201 28.744C121.201 25.4 118.913 24.296 116.849 24.296C114.769 24.296 112.481 25.4 112.481 28.744C112.481 32.056 114.785 33.176 116.849 33.176ZM116.849 31.368C115.537 31.368 115.057 30.184 115.057 28.76C115.057 27.224 115.617 26.184 116.849 26.184C118.129 26.184 118.625 27.336 118.625 28.76C118.625 30.312 118.065 31.368 116.849 31.368ZM125.111 33.176C126.599 33.176 127.543 32.328 128.055 31.672V33H130.631V24.472H128.055V30.264C127.479 30.76 126.887 31.128 126.199 31.128C125.479 31.128 125.191 30.712 125.191 29.944V24.472H122.615V30.696C122.615 32.456 123.655 33.176 125.111 33.176ZM132.601 33H135.177V27.272C135.753 26.776 136.345 26.424 137.033 26.424C137.753 26.424 138.041 26.824 138.041 27.592V33H140.601V26.776C140.601 25.016 139.561 24.296 138.121 24.296C136.633 24.296 135.689 25.144 135.177 25.816V24.472H132.601V33ZM146.06 33.112C146.62 33.112 147.564 33.032 147.756 32.984V31.144C147.58 31.208 147.196 31.24 146.908 31.24C145.98 31.24 145.724 30.952 145.724 30.04V26.344H147.916V24.472H145.724V21.544H143.164V24.472H141.74V26.344H143.164V30.6C143.164 32.2 143.532 33.112 146.06 33.112Z" fill="white"/>
<defs>
<linearGradient id="paint0_linear_182_1586" x1="-2.48159e-07" y1="-3.5" x2="168.699" y2="76.7465" gradientUnits="userSpaceOnUse">
<stop stop-color="#53E88B"/>
<stop offset="1" stop-color="#15BE77"/>
</linearGradient>
</defs>
</svg>
