<svg width="40" height="40" viewBox="0 0 40 40" fill="none" xmlns="http://www.w3.org/2000/svg">
<path d="M20 40C31.0457 40 40 31.0457 40 20C40 8.9543 31.0457 0 20 0C8.9543 0 0 8.9543 0 20C0 31.0457 8.9543 40 20 40Z" fill="#FFE14D"/>
<path d="M40 20C40 8.97195 31.028 0 20 0V40C31.028 40 40 31.028 40 20Z" fill="#FFBB33"/>
<path d="M20 35.2344C11.6 35.2344 4.76562 28.4 4.76562 20C4.76562 11.6 11.6 4.76562 20 4.76562C28.4 4.76562 35.2344 11.6 35.2344 20C35.2344 28.4 28.4 35.2344 20 35.2344Z" fill="#FFBB33"/>
<path d="M35.2344 20C35.2344 11.6 28.4 4.76562 20 4.76562V35.2344C28.4 35.2344 35.2344 28.4 35.2344 20Z" fill="#E68A2E"/>
<path d="M21.1719 18.9116V14.2783C22.5197 14.609 23.5156 15.4762 23.5156 16.473C23.5156 17.1208 24.0398 17.6449 24.6875 17.6449C25.3352 17.6449 25.8594 17.1208 25.8594 16.473C25.8594 14.2088 23.8437 12.3157 21.1719 11.8804V10.6136C21.1719 9.96591 20.6477 9.44177 20 9.44177C19.3523 9.44177 18.8281 9.96591 18.8281 10.6136V11.8804C16.1563 12.3157 14.1406 14.2088 14.1406 16.473C14.1406 18.7372 16.1563 20.6304 18.8281 21.0657V25.699C17.4803 25.3683 16.4844 24.5011 16.4844 23.5043C16.4844 22.8565 15.9602 22.3324 15.3125 22.3324C14.6648 22.3324 14.1406 22.8565 14.1406 23.5043C14.1406 25.7685 16.1563 27.6616 18.8281 28.0969V29.3751C18.8281 30.0228 19.3523 30.5469 20 30.5469C20.6477 30.5469 21.1719 30.0228 21.1719 29.3751V28.0969C23.8437 27.6616 25.8594 25.7685 25.8594 23.5043C25.8594 21.2401 23.8437 19.3469 21.1719 18.9116ZM16.4844 16.473C16.4844 15.4762 17.4803 14.609 18.8281 14.2783V18.6677C17.4803 18.3369 16.4844 17.4697 16.4844 16.473ZM21.1719 25.699V21.3096C22.5197 21.6403 23.5156 22.5075 23.5156 23.5043C23.5156 24.5011 22.5197 25.3682 21.1719 25.699Z" fill="#FFE14D"/>
<path d="M21.1719 29.3751V28.0969C23.8437 27.6616 25.8594 25.7685 25.8594 23.5043C25.8594 21.2401 23.8437 19.3469 21.1719 18.9116V14.2783C22.5197 14.609 23.5156 15.4762 23.5156 16.473C23.5156 17.1208 24.0398 17.6449 24.6875 17.6449C25.3352 17.6449 25.8594 17.1208 25.8594 16.473C25.8594 14.2088 23.8437 12.3157 21.1719 11.8804V10.6136C21.1719 9.96591 20.6477 9.44177 20 9.44177V30.5469C20.6477 30.5469 21.1719 30.0228 21.1719 29.3751ZM21.1719 21.3095C22.5197 21.6402 23.5156 22.5074 23.5156 23.5042C23.5156 24.501 22.5197 25.3682 21.1719 25.6989V21.3095Z" fill="#FFBB33"/>
</svg>
