<svg width="239" height="157" viewBox="0 0 239 157" fill="none" xmlns="http://www.w3.org/2000/svg">
<g filter="url(#filter0_d_182_1574)">
<rect x="25" y="24" width="152" height="57" rx="15" fill="white"/>
<rect x="25.5" y="24.5" width="151" height="56" rx="14.5" stroke="#F4F4F4"/>
</g>
<g clip-path="url(#clip0_182_1574)">
<path d="M59.5 65.0001C66.4036 65.0001 72 59.4036 72 52.5001C72 45.5965 66.4036 40.0001 59.5 40.0001C52.5964 40.0001 47 45.5965 47 52.5001C47 59.4036 52.5964 65.0001 59.5 65.0001Z" fill="#3C5A9A"/>
<path d="M63.5644 43.8369H60.7954C59.1521 43.8369 57.3244 44.528 57.3244 46.91C57.3324 47.74 57.3244 48.5348 57.3244 49.4294H55.4233V52.4545H57.3832V61.1632H60.9845V52.397H63.3615L63.5766 49.4209H60.9225C60.9225 49.4209 60.9284 48.097 60.9225 47.7126C60.9225 46.7713 61.9019 46.8252 61.9608 46.8252C62.4269 46.8252 63.3332 46.8265 63.5658 46.8252V43.8369H63.5644Z" fill="white"/>
</g>
<path d="M86.176 57H87.926V52.59H91.384V51.036H87.926V48.264H92.7V46.64H86.176V57ZM95.131 57.112C96.237 57.112 97.119 56.818 97.875 56.048C97.875 56.468 97.945 56.692 98.043 57H99.779C99.625 56.622 99.569 56.076 99.569 55.18V52.114C99.569 50.378 98.883 49.426 96.895 49.426C95.355 49.426 94.109 50.042 93.311 50.77L94.151 51.848C94.781 51.344 95.621 50.84 96.657 50.84C97.483 50.84 97.875 51.162 97.875 51.904V52.128C94.403 52.52 93.031 53.598 93.031 55.208C93.031 56.44 93.927 57.112 95.131 57.112ZM95.761 55.782C95.131 55.782 94.725 55.474 94.725 54.886C94.725 54.074 95.817 53.57 97.875 53.29V54.928C97.329 55.446 96.643 55.782 95.761 55.782ZM104.975 57.154C106.767 57.154 107.649 56.16 108.181 54.97L106.753 54.452C106.347 55.502 105.801 55.74 105.017 55.74C103.883 55.74 103.239 54.872 103.239 53.29C103.239 51.512 104.065 50.868 105.045 50.868C105.871 50.868 106.403 51.274 106.697 52.114L108.153 51.596C107.705 50.448 106.921 49.426 105.073 49.426C103.421 49.426 101.503 50.448 101.503 53.29C101.503 56.006 103.253 57.154 104.975 57.154ZM113.12 57.154C114.45 57.154 115.472 56.664 116.242 55.81L115.332 54.914C114.772 55.46 114.212 55.782 113.246 55.782C112.154 55.782 111.328 55.194 111.258 53.85H116.34V53.444C116.34 50.42 114.744 49.426 113.078 49.426C111.538 49.426 109.536 50.462 109.536 53.29C109.536 56.02 111.258 57.154 113.12 57.154ZM111.286 52.562C111.454 51.302 112.224 50.826 113.064 50.826C114.1 50.826 114.66 51.428 114.758 52.562H111.286ZM122.209 57.112C124.113 57.112 125.387 55.852 125.387 53.276C125.387 50.7 124.141 49.426 122.447 49.426C121.341 49.426 120.571 49.958 120.081 50.546V46.64H118.359V57H120.081V56.174C120.627 56.79 121.411 57.112 122.209 57.112ZM121.831 55.74C121.215 55.74 120.543 55.418 120.081 54.816V51.834C120.487 51.344 121.173 50.896 121.887 50.896C122.993 50.896 123.665 51.722 123.665 53.29C123.665 54.942 123.133 55.74 121.831 55.74ZM130.623 57.154C132.429 57.154 134.249 56.006 134.249 53.29C134.249 50.546 132.429 49.426 130.623 49.426C128.803 49.426 126.997 50.546 126.997 53.29C126.997 56.006 128.817 57.154 130.623 57.154ZM130.623 55.712C129.307 55.712 128.733 54.704 128.733 53.29C128.733 51.792 129.377 50.896 130.623 50.896C131.925 50.896 132.513 51.904 132.513 53.29C132.513 54.816 131.869 55.712 130.623 55.712ZM139.463 57.154C141.269 57.154 143.089 56.006 143.089 53.29C143.089 50.546 141.269 49.426 139.463 49.426C137.643 49.426 135.837 50.546 135.837 53.29C135.837 56.006 137.657 57.154 139.463 57.154ZM139.463 55.712C138.147 55.712 137.573 54.704 137.573 53.29C137.573 51.792 138.217 50.896 139.463 50.896C140.765 50.896 141.353 51.904 141.353 53.29C141.353 54.816 140.709 55.712 139.463 55.712ZM145.097 57H146.819V54.858L148.009 53.556L149.927 57H151.733L149.101 52.282L151.523 49.566H149.633L146.819 52.814V46.64H145.097V57Z" fill="#09051C"/>
<defs>
<filter id="filter0_d_182_1574" x="-13" y="0" width="252" height="157" filterUnits="userSpaceOnUse" color-interpolation-filters="sRGB">
<feFlood flood-opacity="0" result="BackgroundImageFix"/>
<feColorMatrix in="SourceAlpha" type="matrix" values="0 0 0 0 0 0 0 0 0 0 0 0 0 0 0 0 0 0 127 0" result="hardAlpha"/>
<feOffset dx="12" dy="26"/>
<feGaussianBlur stdDeviation="25"/>
<feColorMatrix type="matrix" values="0 0 0 0 0.352941 0 0 0 0 0.423529 0 0 0 0 0.917647 0 0 0 0.07 0"/>
<feBlend mode="normal" in2="BackgroundImageFix" result="effect1_dropShadow_182_1574"/>
<feBlend mode="normal" in="SourceGraphic" in2="effect1_dropShadow_182_1574" result="shape"/>
</filter>
<clipPath id="clip0_182_1574">
<rect width="25" height="25" fill="white" transform="translate(47 40)"/>
</clipPath>
</defs>
</svg>
