<svg width="215" height="157" viewBox="0 0 215 157" fill="none" xmlns="http://www.w3.org/2000/svg">
<g filter="url(#filter0_d_182_1573)">
<rect x="38" y="24" width="152" height="57" rx="15" fill="white"/>
<rect x="38.5" y="24.5" width="151" height="56" rx="14.5" stroke="#F4F4F4"/>
</g>
<path d="M111.096 57.196C112.692 57.196 113.602 56.244 113.924 55.502H113.952V57H115.394V51.876H111.628V53.29H113.714C113.602 54.816 112.664 55.628 111.292 55.628C109.822 55.628 108.436 54.634 108.436 51.736C108.436 48.824 109.99 48.068 111.222 48.068C112.454 48.068 113.168 48.586 113.63 50.14L115.254 49.706C114.638 47.354 113.196 46.444 111.236 46.444C108.478 46.444 106.672 48.46 106.672 51.778C106.672 54.942 108.128 57.196 111.096 57.196ZM121.104 57.154C122.91 57.154 124.73 56.006 124.73 53.29C124.73 50.546 122.91 49.426 121.104 49.426C119.284 49.426 117.478 50.546 117.478 53.29C117.478 56.006 119.298 57.154 121.104 57.154ZM121.104 55.712C119.788 55.712 119.214 54.704 119.214 53.29C119.214 51.792 119.858 50.896 121.104 50.896C122.406 50.896 122.994 51.904 122.994 53.29C122.994 54.816 122.35 55.712 121.104 55.712ZM129.943 57.154C131.749 57.154 133.569 56.006 133.569 53.29C133.569 50.546 131.749 49.426 129.943 49.426C128.123 49.426 126.317 50.546 126.317 53.29C126.317 56.006 128.137 57.154 129.943 57.154ZM129.943 55.712C128.627 55.712 128.053 54.704 128.053 53.29C128.053 51.792 128.697 50.896 129.943 50.896C131.245 50.896 131.833 51.904 131.833 53.29C131.833 54.816 131.189 55.712 129.943 55.712ZM138.377 59.884C140.673 59.884 142.213 59.142 142.213 57.616C142.213 56.314 141.345 55.726 139.147 55.586L137.831 55.502C137.173 55.446 136.977 55.348 136.977 55.054C136.977 54.858 137.131 54.704 137.355 54.578C137.719 54.676 137.971 54.732 138.391 54.732C140.323 54.732 141.485 53.64 141.485 52.086C141.485 51.694 141.387 51.344 141.219 51.078C141.709 50.924 142.185 50.882 142.521 50.882V49.482C141.905 49.538 141.149 49.832 140.673 50.21C140.169 49.762 139.413 49.426 138.391 49.426C136.445 49.426 135.269 50.56 135.269 52.086C135.269 52.996 135.689 53.752 136.445 54.228C135.885 54.564 135.437 55.026 135.437 55.586C135.437 55.992 135.633 56.3 136.011 56.496C135.255 56.79 134.793 57.322 134.793 58.064C134.793 59.142 135.815 59.884 138.377 59.884ZM138.419 53.542C137.467 53.542 136.893 53.052 136.893 52.142C136.893 51.232 137.453 50.714 138.405 50.714C139.385 50.714 139.917 51.218 139.917 52.142C139.917 53.052 139.357 53.542 138.419 53.542ZM138.643 58.638C137.131 58.638 136.375 58.428 136.375 57.77C136.375 57.392 136.571 57.042 137.061 56.818C137.215 56.846 137.355 56.86 137.509 56.86L138.797 56.944C140.309 57.042 140.687 57.238 140.687 57.77C140.687 58.302 139.903 58.638 138.643 58.638ZM144.364 57H146.1V46.64H144.364V57ZM151.773 57.154C153.103 57.154 154.125 56.664 154.895 55.81L153.985 54.914C153.425 55.46 152.865 55.782 151.899 55.782C150.807 55.782 149.981 55.194 149.911 53.85H154.993V53.444C154.993 50.42 153.397 49.426 151.731 49.426C150.191 49.426 148.189 50.462 148.189 53.29C148.189 56.02 149.911 57.154 151.773 57.154ZM149.939 52.562C150.107 51.302 150.877 50.826 151.717 50.826C152.753 50.826 153.313 51.428 153.411 52.562H149.939Z" fill="#09051C"/>
<g clip-path="url(#clip0_182_1573)">
<path d="M93.3917 52.7339C93.3917 51.7097 93.3087 50.9622 93.129 50.1871H81.4453V54.81H88.3034C88.1652 55.9589 87.4185 57.689 85.7593 58.8516L85.736 59.0064L89.4302 61.8712L89.6861 61.8968C92.0367 59.7237 93.3917 56.5264 93.3917 52.7339Z" fill="#4285F4"/>
<path d="M81.4455 64.9141C84.8054 64.9141 87.626 63.8068 89.6863 61.8967L85.7594 58.8516C84.7086 59.5852 83.2982 60.0973 81.4455 60.0973C78.1547 60.0973 75.3617 57.9243 74.366 54.9208L74.2201 54.9332L70.3788 57.909L70.3286 58.0488C72.375 62.1181 76.5784 64.9141 81.4455 64.9141Z" fill="#34A853"/>
<path d="M74.3662 54.9208C74.1035 54.1457 73.9515 53.3152 73.9515 52.457C73.9515 51.5988 74.1035 50.7684 74.3524 49.9933L74.3455 49.8282L70.4561 46.8046L70.3288 46.8652C69.4854 48.5538 69.0015 50.4501 69.0015 52.457C69.0015 54.464 69.4854 56.3602 70.3288 58.0488L74.3662 54.9208Z" fill="#FBBC05"/>
<path d="M81.4455 44.8167C83.7822 44.8167 85.3584 45.8271 86.2572 46.6715L89.7692 43.2388C87.6123 41.2319 84.8053 40 81.4455 40C76.5784 40 72.375 42.7959 70.3286 46.8652L74.3522 49.9933C75.3617 46.9898 78.1547 44.8167 81.4455 44.8167Z" fill="#EB4335"/>
</g>
<defs>
<filter id="filter0_d_182_1573" x="0" y="0" width="252" height="157" filterUnits="userSpaceOnUse" color-interpolation-filters="sRGB">
<feFlood flood-opacity="0" result="BackgroundImageFix"/>
<feColorMatrix in="SourceAlpha" type="matrix" values="0 0 0 0 0 0 0 0 0 0 0 0 0 0 0 0 0 0 127 0" result="hardAlpha"/>
<feOffset dx="12" dy="26"/>
<feGaussianBlur stdDeviation="25"/>
<feColorMatrix type="matrix" values="0 0 0 0 0.352941 0 0 0 0 0.423529 0 0 0 0 0.917647 0 0 0 0.07 0"/>
<feBlend mode="normal" in2="BackgroundImageFix" result="effect1_dropShadow_182_1573"/>
<feBlend mode="normal" in="SourceGraphic" in2="effect1_dropShadow_182_1573" result="shape"/>
</filter>
<clipPath id="clip0_182_1573">
<rect width="24.4048" height="25" fill="white" transform="translate(69 40)"/>
</clipPath>
</defs>
</svg>
