<svg width="98" height="13" viewBox="0 0 98 13" fill="none" xmlns="http://www.w3.org/2000/svg">
<path d="M5.46 12.21C7.17 12.21 8.145 11.19 8.49 10.395H8.52V12H10.065V6.51H6.03V8.025H8.265C8.145 9.66 7.14 10.53 5.67 10.53C4.095 10.53 2.61 9.465 2.61 6.36C2.61 3.24 4.275 2.43 5.595 2.43C6.915 2.43 7.68 2.985 8.175 4.65L9.915 4.185C9.255 1.665 7.71 0.69 5.61 0.69C2.655 0.69 0.72 2.85 0.72 6.405C0.72 9.795 2.28 12.21 5.46 12.21ZM12.2118 12H14.0568V6.96C14.5818 6.105 15.3318 5.55 16.5168 5.55C16.6218 5.55 16.9218 5.565 17.0118 5.58L17.0718 3.885H16.9518C15.4368 3.885 14.5818 4.545 14.0868 5.34H14.0568V4.035H12.2118V12ZM21.4025 12.165C22.8275 12.165 23.9225 11.64 24.7475 10.725L23.7725 9.765C23.1725 10.35 22.5725 10.695 21.5375 10.695C20.3675 10.695 19.4825 10.065 19.4075 8.625H24.8525V8.19C24.8525 4.95 23.1425 3.885 21.3575 3.885C19.7075 3.885 17.5625 4.995 17.5625 8.025C17.5625 10.95 19.4075 12.165 21.4025 12.165ZM19.4375 7.245C19.6175 5.895 20.4425 5.385 21.3425 5.385C22.4525 5.385 23.0525 6.03 23.1575 7.245H19.4375ZM29.8693 12.165C31.2943 12.165 32.3893 11.64 33.2143 10.725L32.2393 9.765C31.6393 10.35 31.0393 10.695 30.0043 10.695C28.8343 10.695 27.9493 10.065 27.8743 8.625H33.3193V8.19C33.3193 4.95 31.6093 3.885 29.8243 3.885C28.1743 3.885 26.0293 4.995 26.0293 8.025C26.0293 10.95 27.8743 12.165 29.8693 12.165ZM27.9043 7.245C28.0843 5.895 28.9093 5.385 29.8093 5.385C30.9193 5.385 31.5193 6.03 31.6243 7.245H27.9043ZM34.9461 12H36.8061V6.495C37.4811 5.88 38.1561 5.46 38.9661 5.46C39.7761 5.46 40.1511 5.865 40.1511 6.75V12H42.0111V6.285C42.0111 4.71 41.1111 3.885 39.7161 3.885C38.2761 3.885 37.3161 4.575 36.8061 5.115V4.035H34.9461V12ZM47.9739 12H49.7139V3.915H49.7439L55.1889 12H56.8989V0.9H55.1589V8.82H55.1289L49.8789 0.9H47.9739V12ZM62.6243 12.165C64.5593 12.165 66.5093 10.935 66.5093 8.025C66.5093 5.085 64.5593 3.885 62.6243 3.885C60.6743 3.885 58.7393 5.085 58.7393 8.025C58.7393 10.935 60.6893 12.165 62.6243 12.165ZM62.6243 10.62C61.2143 10.62 60.5993 9.54 60.5993 8.025C60.5993 6.42 61.2893 5.46 62.6243 5.46C64.0193 5.46 64.6493 6.54 64.6493 8.025C64.6493 9.66 63.9593 10.62 62.6243 10.62ZM70.8398 12.12C72.0248 12.12 72.7898 11.595 73.3748 10.92C73.3748 11.325 73.4498 11.775 73.5548 12H75.4598C75.2798 11.595 75.2198 11.01 75.2198 10.05V0.9H73.3748V4.89C72.7898 4.23 71.9498 3.885 71.0948 3.885C69.0548 3.885 67.6898 5.28 67.6898 8.04C67.6898 10.8 69.0248 12.12 70.8398 12.12ZM71.4398 10.605C70.2548 10.605 69.5348 9.765 69.5348 8.085C69.5348 6.315 70.1048 5.415 71.4998 5.415C72.1598 5.415 72.8798 5.76 73.3748 6.405V9.6C72.9398 10.125 72.2048 10.605 71.4398 10.605ZM80.0098 12.12C81.1948 12.12 81.9598 11.595 82.5448 10.92C82.5448 11.325 82.6198 11.775 82.7248 12H84.6298C84.4498 11.595 84.3898 11.01 84.3898 10.05V0.9H82.5448V4.89C81.9598 4.23 81.1198 3.885 80.2648 3.885C78.2248 3.885 76.8598 5.28 76.8598 8.04C76.8598 10.8 78.1948 12.12 80.0098 12.12ZM80.6098 10.605C79.4248 10.605 78.7048 9.765 78.7048 8.085C78.7048 6.315 79.2748 5.415 80.6698 5.415C81.3298 5.415 82.0498 5.76 82.5448 6.405V9.6C82.1098 10.125 81.3748 10.605 80.6098 10.605ZM86.5397 12H88.3997V0.9H86.5397V12ZM93.9416 12.165C95.3666 12.165 96.4616 11.64 97.2866 10.725L96.3116 9.765C95.7116 10.35 95.1116 10.695 94.0766 10.695C92.9066 10.695 92.0216 10.065 91.9466 8.625H97.3916V8.19C97.3916 4.95 95.6816 3.885 93.8966 3.885C92.2466 3.885 90.1016 4.995 90.1016 8.025C90.1016 10.95 91.9466 12.165 93.9416 12.165ZM91.9766 7.245C92.1566 5.895 92.9816 5.385 93.8816 5.385C94.9916 5.385 95.5916 6.03 95.6966 7.245H91.9766Z" fill="#09051C"/>
</svg>
