<svg width="157" height="57" viewBox="0 0 157 57" fill="none" xmlns="http://www.w3.org/2000/svg">
<rect width="157" height="57" rx="15" fill="url(#paint0_linear_182_752)"/>
<path d="M61.216 33H63.616V25.384H63.648L68.816 33H71.216V21.16H68.816V28.712H68.784L63.824 21.16H61.216V33ZM77.3015 33.176C78.7895 33.176 80.0215 32.744 81.0135 31.896L80.0215 30.36C79.4455 30.888 78.5015 31.384 77.4935 31.384C76.4215 31.384 75.6375 30.84 75.5095 29.432H81.1575V29.048C81.1575 25.176 78.9975 24.296 77.2375 24.296C75.4775 24.296 72.9495 25.432 72.9495 28.744C72.9495 32.04 75.0775 33.176 77.3015 33.176ZM75.5415 27.912C75.7335 26.664 76.4215 26.136 77.2215 26.136C78.1815 26.136 78.7255 26.712 78.8535 27.912H75.5415ZM81.3948 33H83.9868L85.5708 30.424L87.2028 33H89.8908L87.0108 28.6L89.7628 24.472H87.1708L85.7788 26.824L84.3068 24.472H81.6028L84.3228 28.6L81.3948 33ZM94.5444 33.112C95.1044 33.112 96.0484 33.032 96.2404 32.984V31.144C96.0644 31.208 95.6804 31.24 95.3924 31.24C94.4644 31.24 94.2084 30.952 94.2084 30.04V26.344H96.4004V24.472H94.2084V21.544H91.6484V24.472H90.2244V26.344H91.6484V30.6C91.6484 32.2 92.0164 33.112 94.5444 33.112Z" fill="white"/>
<defs>
<linearGradient id="paint0_linear_182_752" x1="-2.22634e-07" y1="-3.5" x2="157" y2="63.5" gradientUnits="userSpaceOnUse">
<stop stop-color="#53E88B"/>
<stop offset="1" stop-color="#15BE77"/>
</linearGradient>
</defs>
</svg>
