<svg width="375" height="173" viewBox="0 0 375 173" fill="none" xmlns="http://www.w3.org/2000/svg">
<g filter="url(#filter0_d_182_2002)">
<rect x="20" y="24" width="335" height="73" rx="22" fill="white"/>
</g>
<path d="M167.221 46.7879C167.322 49.3094 169.312 58.9315 169.312 58.9315C170.043 60.8803 170.673 58.9315 170.673 58.9315C173.081 51.0266 168.161 46.4457 168.161 46.4457C166.905 45.642 167.221 46.7879 167.221 46.7879ZM195.787 45.4141C195.787 45.4141 198.196 47.2468 195.787 47.5903C195.787 47.5903 186.787 48.7355 180.09 55.6112C180.09 55.6112 170.043 65.2315 166.277 75.7721C166.277 75.7721 165.021 75.7721 165.442 73.7108C165.86 71.6489 168.37 62.5976 179.566 51.4868C179.566 51.4868 190.347 40.717 195.787 45.4141Z" fill="#FF4600"/>
<path d="M150.001 60.6656C150.398 60.7574 150.755 60.8024 151.28 60.8024C153.332 60.8024 154.715 59.3568 154.715 57.521C154.715 55.8694 153.647 55.2737 152.265 55.2737C151.656 55.2737 151.195 55.3199 150.902 55.4105L150.001 60.6656ZM148.848 53.5066C149.708 53.2762 150.986 53.1395 152.243 53.1395C153.564 53.1395 154.948 53.4367 155.869 54.2409C156.687 54.9291 157.168 55.9369 157.168 57.3156C157.168 59.1502 156.372 60.6431 155.366 61.5142C154.235 62.5008 152.619 62.9828 150.943 62.9828C150.44 62.9828 150.001 62.9129 149.623 62.8679L148.596 68.7194H146.208L148.848 53.5066Z" fill="black"/>
<path d="M163.642 59.471C163.391 59.4011 163.078 59.3567 162.637 59.3567C160.395 59.3567 158.634 62.1341 158.634 64.6811C158.634 65.8494 159.032 66.8141 160.102 66.8141C161.253 66.8141 162.637 65.2549 163.119 62.4088L163.642 59.471ZM162.658 68.7192C162.658 68.0524 162.741 67.1588 162.826 66.2166H162.784C161.778 68.2603 160.415 68.9709 159.116 68.9709C157.293 68.9709 156.097 67.4105 156.097 65.1625C156.097 61.3536 158.529 57.2917 163.286 57.2917C164.397 57.2917 165.592 57.5209 166.389 57.7963L165.32 63.6246C165.025 65.2762 164.858 67.388 164.901 68.7192H162.658Z" fill="black"/>
<path d="M180.26 64.2905C180.26 65.826 180.993 66.9074 182.251 66.9074C184.074 66.9074 185.29 64.1525 185.29 61.927C185.29 60.7788 184.807 59.3563 183.341 59.3563C181.392 59.3563 180.26 62.2024 180.26 64.2905ZM187.805 61.9052C187.805 65.7129 185.394 68.9705 181.916 68.9705C179.337 68.9705 177.746 67.0204 177.746 64.3579C177.746 60.5733 180.155 57.292 183.635 57.292C186.38 57.292 187.805 59.4487 187.805 61.9052Z" fill="black"/>
<path d="M188.264 68.7192L189.585 61.0089C189.836 59.6776 189.982 58.5074 190.108 57.5446H192.289L192.058 59.5408H192.099C193.042 58.0485 194.342 57.2917 195.767 57.2917C197.234 57.2917 198.366 58.2564 198.366 60.3669C198.366 60.8709 198.284 61.6508 198.178 62.2021L197.065 68.7192H194.613L195.702 62.4088C195.767 61.9961 195.829 61.514 195.829 61.0775C195.829 60.1366 195.515 59.4709 194.551 59.4709C193.441 59.4709 192.015 60.939 191.575 63.5565L190.695 68.7192H188.264Z" fill="black"/>
<path d="M204.86 59.2879C203.329 59.2879 202.324 60.779 202.031 62.134C204.545 62.1565 206.161 61.7893 206.161 60.4362C206.161 59.7249 205.636 59.2879 204.86 59.2879ZM207.187 68.076C206.18 68.6492 204.819 68.9708 203.581 68.9708C200.755 68.9708 199.392 67.0675 199.392 64.3363C199.392 60.9632 201.654 57.2922 205.175 57.2922C207.187 57.2922 208.465 58.5536 208.465 60.4362C208.465 63.3035 205.721 64.2208 201.781 64.1296C201.738 64.5193 201.822 65.2761 202.053 65.7125C202.452 66.4706 203.183 66.8602 204.148 66.8602C205.302 66.8602 206.223 66.5386 206.958 66.1259L207.187 68.076Z" fill="black"/>
<path d="M214.353 59.2879C212.824 59.2879 211.817 60.779 211.524 62.134C214.038 62.1565 215.653 61.7893 215.653 60.4362C215.653 59.7249 215.129 59.2879 214.353 59.2879ZM216.679 68.076C215.674 68.6492 214.312 68.9708 213.076 68.9708C210.247 68.9708 208.884 67.0675 208.884 64.3363C208.884 60.9632 211.146 57.2922 214.668 57.2922C216.679 57.2922 217.96 58.5536 217.96 60.4362C217.96 63.3035 215.213 64.2208 211.273 64.1296C211.23 64.5193 211.315 65.2761 211.546 65.7125C211.944 66.4706 212.677 66.8602 213.641 66.8602C214.795 66.8602 215.715 66.5386 216.451 66.1259L216.679 68.076Z" fill="black"/>
<path d="M218.105 68.7192L219.299 61.835C219.571 60.2521 219.718 58.5312 219.821 57.5446H221.939C221.876 58.3014 221.814 59.0813 221.709 59.8855H221.771C222.465 58.3932 223.574 57.2917 224.958 57.2917C225.148 57.2917 225.335 57.3154 225.504 57.3154L225.021 59.9311C224.895 59.9074 224.727 59.9074 224.559 59.9074C222.818 59.9074 221.709 61.835 221.312 64.2209L220.535 68.7192H218.105Z" fill="black"/>
<path d="M227.358 58.5668H227.536C227.72 58.5668 227.841 58.4549 227.841 58.286C227.841 58.0957 227.713 58.0124 227.53 58.0124C227.446 58.0124 227.386 58.0191 227.358 58.0264V58.5668ZM227.183 57.8927C227.271 57.875 227.399 57.8623 227.517 57.8623C227.702 57.8623 227.826 57.9036 227.907 57.9838C227.974 58.0489 228.013 58.1504 228.013 58.2671C228.013 58.4592 227.903 58.5893 227.761 58.641V58.6483C227.864 58.6872 227.924 58.7935 227.959 58.9467C228.002 59.151 228.034 59.295 228.063 59.3528H227.882C227.86 59.3078 227.829 59.1832 227.795 58.999C227.754 58.7948 227.679 58.7194 227.521 58.7121H227.358V59.3528H227.183V57.8927Z" fill="black"/>
<path d="M227.584 57.292C226.917 57.292 226.376 57.8847 226.376 58.6141C226.376 59.3436 226.917 59.9369 227.584 59.9369C228.25 59.9369 228.791 59.3436 228.791 58.6141C228.791 57.8847 228.25 57.292 227.584 57.292ZM227.584 57.4963C228.147 57.4963 228.604 57.9953 228.604 58.6141C228.604 59.2324 228.147 59.7333 227.584 59.7333C227.019 59.7333 226.561 59.2324 226.561 58.6141C226.561 57.9953 227.019 57.4963 227.584 57.4963Z" fill="black"/>
<defs>
<filter id="filter0_d_182_2002" x="-18" y="0" width="435" height="173" filterUnits="userSpaceOnUse" color-interpolation-filters="sRGB">
<feFlood flood-opacity="0" result="BackgroundImageFix"/>
<feColorMatrix in="SourceAlpha" type="matrix" values="0 0 0 0 0 0 0 0 0 0 0 0 0 0 0 0 0 0 127 0" result="hardAlpha"/>
<feOffset dx="12" dy="26"/>
<feGaussianBlur stdDeviation="25"/>
<feColorMatrix type="matrix" values="0 0 0 0 0.352941 0 0 0 0 0.423529 0 0 0 0 0.917647 0 0 0 0.07 0"/>
<feBlend mode="normal" in2="BackgroundImageFix" result="effect1_dropShadow_182_2002"/>
<feBlend mode="normal" in="SourceGraphic" in2="effect1_dropShadow_182_2002" result="shape"/>
</filter>
</defs>
</svg>
