<svg width="79" height="29" viewBox="0 0 79 29" fill="none" xmlns="http://www.w3.org/2000/svg">
<rect width="79" height="29" rx="14.5" fill="url(#paint0_linear_194_833)"/>
<path d="M12.008 18H13.496V14.628H15.068C16.892 14.628 18.536 13.992 18.536 11.844C18.536 9.792 17.036 9.12 15.116 9.12H12.008V18ZM13.496 13.32V10.488H15.128C16.46 10.488 17.06 10.908 17.06 11.892C17.06 12.912 16.46 13.32 15.14 13.32H13.496ZM20.0507 18H21.5267V13.968C21.9467 13.284 22.5467 12.84 23.4947 12.84C23.5787 12.84 23.8187 12.852 23.8907 12.864L23.9387 11.508H23.8427C22.6307 11.508 21.9467 12.036 21.5507 12.672H21.5267V11.628H20.0507V18ZM28.0096 18.132C29.5576 18.132 31.1176 17.148 31.1176 14.82C31.1176 12.468 29.5576 11.508 28.0096 11.508C26.4496 11.508 24.9016 12.468 24.9016 14.82C24.9016 17.148 26.4616 18.132 28.0096 18.132ZM28.0096 16.896C26.8816 16.896 26.3896 16.032 26.3896 14.82C26.3896 13.536 26.9416 12.768 28.0096 12.768C29.1256 12.768 29.6296 13.632 29.6296 14.82C29.6296 16.128 29.0776 16.896 28.0096 16.896ZM35.526 18.132C37.062 18.132 37.818 17.28 38.274 16.26L37.05 15.816C36.702 16.716 36.234 16.92 35.562 16.92C34.59 16.92 34.038 16.176 34.038 14.82C34.038 13.296 34.746 12.744 35.586 12.744C36.294 12.744 36.75 13.092 37.002 13.812L38.25 13.368C37.866 12.384 37.194 11.508 35.61 11.508C34.194 11.508 32.55 12.384 32.55 14.82C32.55 17.148 34.05 18.132 35.526 18.132ZM42.4831 18.132C44.0191 18.132 44.7751 17.28 45.2311 16.26L44.0071 15.816C43.6591 16.716 43.1911 16.92 42.5191 16.92C41.5471 16.92 40.9951 16.176 40.9951 14.82C40.9951 13.296 41.7031 12.744 42.5431 12.744C43.2511 12.744 43.7071 13.092 43.9591 13.812L45.2071 13.368C44.8231 12.384 44.1511 11.508 42.5671 11.508C41.1511 11.508 39.5071 12.384 39.5071 14.82C39.5071 17.148 41.0071 18.132 42.4831 18.132ZM49.5361 18.132C50.6761 18.132 51.5521 17.712 52.2121 16.98L51.4321 16.212C50.9521 16.68 50.4721 16.956 49.6441 16.956C48.7081 16.956 48.0001 16.452 47.9401 15.3H52.2961V14.952C52.2961 12.36 50.9281 11.508 49.5001 11.508C48.1801 11.508 46.4641 12.396 46.4641 14.82C46.4641 17.16 47.9401 18.132 49.5361 18.132ZM47.9641 14.196C48.1081 13.116 48.7681 12.708 49.4881 12.708C50.3761 12.708 50.8561 13.224 50.9401 14.196H47.9641ZM56.3083 18.132C57.7603 18.132 58.9723 17.508 58.9723 16.164C58.9723 14.676 57.6403 14.4 56.5483 14.16C55.7923 13.992 55.1563 13.836 55.1563 13.32C55.1563 12.96 55.4203 12.672 56.2363 12.672C56.8123 12.672 57.5683 12.984 58.0363 13.368L58.7443 12.408C58.0843 11.856 57.3403 11.508 56.1283 11.508C54.7243 11.508 53.7643 12.264 53.7643 13.38C53.7643 14.856 55.0723 15.144 56.1643 15.396C56.9323 15.576 57.5803 15.732 57.5803 16.248C57.5803 16.776 57.1003 16.98 56.3083 16.98C55.4923 16.98 54.7843 16.632 54.3043 16.224L53.5003 17.124C54.0763 17.712 55.1323 18.132 56.3083 18.132ZM62.9724 18.132C64.4244 18.132 65.6364 17.508 65.6364 16.164C65.6364 14.676 64.3044 14.4 63.2124 14.16C62.4564 13.992 61.8204 13.836 61.8204 13.32C61.8204 12.96 62.0844 12.672 62.9004 12.672C63.4764 12.672 64.2324 12.984 64.7004 13.368L65.4084 12.408C64.7484 11.856 64.0044 11.508 62.7924 11.508C61.3884 11.508 60.4284 12.264 60.4284 13.38C60.4284 14.856 61.7364 15.144 62.8284 15.396C63.5964 15.576 64.2444 15.732 64.2444 16.248C64.2444 16.776 63.7644 16.98 62.9724 16.98C62.1564 16.98 61.4484 16.632 60.9684 16.224L60.1644 17.124C60.7404 17.712 61.7964 18.132 62.9724 18.132Z" fill="white"/>
<defs>
<linearGradient id="paint0_linear_194_833" x1="-1.12026e-07" y1="-1.7807" x2="79.2667" y2="31.675" gradientUnits="userSpaceOnUse">
<stop stop-color="#53E88B"/>
<stop offset="1" stop-color="#15BE77"/>
</linearGradient>
</defs>
</svg>
