<svg width="157" height="57" viewBox="0 0 157 57" fill="none" xmlns="http://www.w3.org/2000/svg">
<rect width="157" height="57" rx="15" fill="url(#paint0_linear_169_19501)"/>
<path d="M45.872 33H48.48V23.336H52.016V21.16H42.352V23.336H45.872V33ZM51.476 33H54.052V27.704C54.532 27.08 55.3 26.536 56.324 26.536C56.484 26.536 56.9 26.568 56.996 26.584L57.028 24.296H56.948C55.348 24.296 54.532 25.176 54.068 25.896H54.052V24.472H51.476V33ZM59.82 36.264C61.532 36.264 62.316 35.368 62.892 33.896L66.476 24.472H63.98L62.092 30.008H62.06L60.188 24.472H57.532L60.796 33.048L60.636 33.464C60.428 33.992 60.108 34.2 59.548 34.2C58.78 34.2 58.172 34.04 57.932 33.976L57.388 35.96C57.836 36.088 58.556 36.264 59.82 36.264ZM76.99 33.224C79.838 33.224 82.558 31.24 82.558 27.08C82.558 22.92 79.838 20.936 76.99 20.936C74.126 20.936 71.406 22.92 71.406 27.08C71.406 31.24 74.126 33.224 76.99 33.224ZM76.99 31.128C75.15 31.128 74.014 29.56 74.014 27.08C74.014 24.6 75.15 23.096 76.99 23.096C78.814 23.096 79.966 24.6 79.966 27.08C79.966 29.56 78.814 31.128 76.99 31.128ZM84.0541 33H86.6301V27.704C87.1101 27.08 87.8781 26.536 88.9021 26.536C89.0621 26.536 89.4781 26.568 89.5741 26.584L89.6061 24.296H89.5261C87.9261 24.296 87.1101 25.176 86.6461 25.896H86.6301V24.472H84.0541V33ZM93.2764 33.128C94.5404 33.128 95.3404 32.488 95.9004 31.72C95.9004 32.152 95.9804 32.792 96.0924 33H98.7324C98.5404 32.568 98.4764 31.944 98.4764 30.92V21.16H95.9004V25.544C95.2924 24.712 94.4604 24.296 93.3084 24.296C91.3564 24.296 89.9964 25.864 89.9964 28.808C89.9964 31.752 91.3404 33.128 93.2764 33.128ZM94.2364 31.192C93.0844 31.192 92.5724 30.216 92.5724 28.792C92.5724 27.24 93.1324 26.424 94.2044 26.424C94.8764 26.424 95.3404 26.68 95.9004 27.208V30.36C95.4844 30.792 94.8924 31.192 94.2364 31.192ZM104.333 33.176C105.821 33.176 107.053 32.744 108.045 31.896L107.053 30.36C106.477 30.888 105.533 31.384 104.525 31.384C103.453 31.384 102.669 30.84 102.541 29.432H108.189V29.048C108.189 25.176 106.029 24.296 104.269 24.296C102.509 24.296 99.9808 25.432 99.9808 28.744C99.9808 32.04 102.109 33.176 104.333 33.176ZM102.573 27.912C102.765 26.664 103.453 26.136 104.253 26.136C105.213 26.136 105.757 26.712 105.885 27.912H102.573ZM109.679 33H112.255V27.704C112.735 27.08 113.503 26.536 114.527 26.536C114.687 26.536 115.103 26.568 115.199 26.584L115.231 24.296H115.151C113.551 24.296 112.735 25.176 112.271 25.896H112.255V24.472H109.679V33Z" fill="white"/>
<defs>
<linearGradient id="paint0_linear_169_19501" x1="-2.22634e-07" y1="-3.5" x2="157" y2="63.5" gradientUnits="userSpaceOnUse">
<stop stop-color="#53E88B"/>
<stop offset="1" stop-color="#15BE77"/>
</linearGradient>
</defs>
</svg>
