<svg width="375" height="173" viewBox="0 0 375 173" fill="none" xmlns="http://www.w3.org/2000/svg">
<g filter="url(#filter0_d_182_2001)">
<rect x="20" y="24" width="335" height="73" rx="22" fill="white"/>
</g>
<path d="M184.643 67.9185H180.522L183.097 52.0925H187.218L184.643 67.9185ZM177.056 52.0925L173.128 62.9777L172.663 60.6337L172.664 60.6346L171.277 53.5175C171.277 53.5175 171.109 52.0925 169.323 52.0925H162.829L162.752 52.3605C162.752 52.3605 164.738 52.7737 167.062 54.1694L170.642 67.9189H174.935L181.49 52.0925H177.056ZM209.464 67.9185H213.248L209.949 52.0921H206.637C205.107 52.0921 204.735 53.2715 204.735 53.2715L198.59 67.9185H202.885L203.744 65.5677H208.982L209.464 67.9185ZM204.93 62.3203L207.095 56.3978L208.313 62.3203H204.93ZM198.912 55.8983L199.5 52.4998C199.5 52.4998 197.686 51.8098 195.794 51.8098C193.749 51.8098 188.894 52.7034 188.894 57.0489C188.894 61.1375 194.593 61.1883 194.593 63.3359C194.593 65.4834 189.481 65.0986 187.794 63.7444L187.181 67.2979C187.181 67.2979 189.021 68.1915 191.832 68.1915C194.644 68.1915 198.886 66.7357 198.886 62.7733C198.886 58.6585 193.136 58.2753 193.136 56.4863C193.136 54.6969 197.149 54.9268 198.912 55.8983Z" fill="#2566AF"/>
<path d="M172.664 60.6341L171.277 53.517C171.277 53.517 171.109 52.0921 169.323 52.0921H162.829L162.752 52.3601C162.752 52.3601 165.874 53.0069 168.868 55.4305C171.73 57.747 172.664 60.6341 172.664 60.6341Z" fill="#E6A540"/>
<defs>
<filter id="filter0_d_182_2001" x="-18" y="0" width="435" height="173" filterUnits="userSpaceOnUse" color-interpolation-filters="sRGB">
<feFlood flood-opacity="0" result="BackgroundImageFix"/>
<feColorMatrix in="SourceAlpha" type="matrix" values="0 0 0 0 0 0 0 0 0 0 0 0 0 0 0 0 0 0 127 0" result="hardAlpha"/>
<feOffset dx="12" dy="26"/>
<feGaussianBlur stdDeviation="25"/>
<feColorMatrix type="matrix" values="0 0 0 0 0.352941 0 0 0 0 0.423529 0 0 0 0 0.917647 0 0 0 0.07 0"/>
<feBlend mode="normal" in2="BackgroundImageFix" result="effect1_dropShadow_182_2001"/>
<feBlend mode="normal" in="SourceGraphic" in2="effect1_dropShadow_182_2001" result="shape"/>
</filter>
</defs>
</svg>
